<?xml version="1.0" encoding="UTF-8"?>
<svg id="Layer_1" data-name="Layer 1" xmlns="http://www.w3.org/2000/svg" viewBox="0 0 214.61 28.9">
  <defs>
    <style>
      .cls-1 {
        fill: #fff;
      }
    </style>
  </defs>
  <path class="cls-1" d="M49.98.36c-2.04,0-3.97.78-5.44,2.19l-6.32,6.34c-.23-4.92-4.34-8.88-9.31-8.88s-9.07,3.96-9.3,8.88l-6.05-6.07-.27-.27C11.83,1.13,9.89.36,7.86.36,3.52.36,0,3.88,0,8.22c0,2.1.82,4.07,2.3,5.56l13.57,13.44.03.03c1.08,1.07,2.52,1.65,4.04,1.65s2.91-.57,3.99-1.6l4.99-4.91,4.89,4.82.1.1c1.08,1.03,2.49,1.6,3.99,1.6s2.96-.59,4.04-1.65l13.47-13.35.13-.13c1.49-1.49,2.3-3.46,2.3-5.56,0-4.33-3.52-7.86-7.86-7.86ZM53.31,11.71l-.1.09h0s-13.42,13.28-13.42,13.28c-.51.51-1.18.79-1.9.79s-1.36-.26-1.86-.74l-4.91-4.91,15.43-15.43.07-.07c.9-.87,2.09-1.35,3.34-1.35,2.67,0,4.83,2.17,4.83,4.83,0,1.34-.53,2.58-1.5,3.5ZM21.87,25.07l-.07.07c-.5.48-1.16.74-1.86.74s-1.4-.28-1.9-.79L4.62,11.81h0s-.1-.09-.1-.09c-.97-.92-1.5-2.16-1.5-3.5,0-2.67,2.17-4.83,4.83-4.83,1.25,0,2.44.48,3.34,1.35l15.51,15.5-4.84,4.84ZM24.72,14h0c-.17-.16-.33-.32-.49-.5-1.03-1.15-1.6-2.64-1.6-4.19,0-3.47,2.82-6.29,6.3-6.29s6.29,2.82,6.29,6.29c0,1.55-.57,3.04-1.61,4.2-.15.17-.31.33-.49.49l-4.2,4.21-4.19-4.21Z"/>
  <g>
    <path class="cls-1" d="M81.56,25.87l-3.69-12.23-3.65,12.23h-3.82l-4.99-17.35h3.72l3.29,11.97,3.59-11.97h3.78l3.52,12,3.26-12h3.75l-4.99,17.35h-3.78Z"/>
    <path class="cls-1" d="M97.54,4.5c0,.67-.24,1.24-.73,1.7-.49.46-1.13.68-1.91.68s-1.39-.23-1.89-.68c-.5-.46-.75-1.02-.75-1.7,0-.72.25-1.29.75-1.73.5-.43,1.13-.65,1.89-.65s1.42.22,1.91.65c.49.44.73,1.01.73,1.73ZM96.82,25.87h-3.78V8.51h3.78v17.35Z"/>
    <path class="cls-1" d="M105.08,25.87h-3.82V2.45h3.82v23.42Z"/>
    <path class="cls-1" d="M113.33,25.87h-3.82V2.45h3.82v23.42Z"/>
    <path class="cls-1" d="M121.39,16.05v9.82h-3.78V8.51h3.49v2.67c.61-.93,1.39-1.67,2.33-2.2.95-.53,2.01-.8,3.18-.8,1.24,0,2.3.29,3.2.86.89.58,1.54,1.41,1.96,2.5.65-1.02,1.48-1.84,2.48-2.45,1-.61,2.16-.91,3.49-.91,1.78,0,3.21.56,4.27,1.68,1.07,1.12,1.6,2.71,1.6,4.78v11.22h-3.75v-10.01c0-1.37-.3-2.43-.9-3.18-.6-.75-1.47-1.13-2.63-1.13-.67,0-1.3.18-1.89.54-.59.36-1.06.88-1.4,1.55-.35.67-.52,1.48-.52,2.41v9.82h-3.78v-10.01c0-1.37-.29-2.43-.88-3.18s-1.46-1.13-2.61-1.13c-.7,0-1.34.18-1.92.54-.59.36-1.06.88-1.4,1.55-.35.67-.52,1.48-.52,2.41Z"/>
    <path class="cls-1" d="M163.79,17.19c0,1.28-.22,2.47-.65,3.56-.44,1.09-1.04,2.04-1.81,2.87-.77.83-1.68,1.46-2.72,1.91-1.04.45-2.19.67-3.43.67s-2.41-.22-3.46-.67c-1.04-.45-1.95-1.08-2.72-1.91-.77-.83-1.38-1.78-1.81-2.87-.44-1.09-.65-2.27-.65-3.56s.22-2.47.65-3.56c.43-1.09,1.04-2.04,1.81-2.85.77-.82,1.68-1.45,2.72-1.91,1.04-.46,2.2-.69,3.46-.69s2.38.23,3.43.69c1.04.46,1.95,1.09,2.72,1.91.77.82,1.38,1.77,1.81,2.85.43,1.09.65,2.27.65,3.56ZM150.45,17.19c0,1.17.21,2.19.62,3.03.41.85.98,1.5,1.71,1.94.73.45,1.53.67,2.4.67s1.66-.22,2.36-.67c.71-.45,1.27-1.09,1.7-1.94s.64-1.86.64-3.03-.21-2.21-.64-3.05c-.42-.84-.99-1.47-1.7-1.91-.71-.43-1.5-.65-2.36-.65s-1.66.22-2.38.65c-.72.44-1.29,1.07-1.71,1.91-.42.84-.64,1.85-.64,3.05Z"/>
    <path class="cls-1" d="M177.79,25.87v-2.61c-.46.85-1.13,1.55-2.02,2.1-.89.55-1.91.83-3.07.83s-2.19-.23-3.1-.7c-.91-.47-1.62-1.19-2.12-2.15-.5-.97-.75-2.2-.75-3.7v-11.12h3.78v10.37c0,1.39.31,2.4.93,3.02.62.62,1.43.93,2.43.93.65,0,1.26-.17,1.81-.51.55-.34.99-.82,1.32-1.45.33-.63.49-1.37.49-2.22v-10.14h3.78v17.35h-3.49Z"/>
    <path class="cls-1" d="M189.17,16.21v9.66h-3.78V8.51h3.49v2.74c.63-.93,1.41-1.68,2.33-2.23.92-.55,1.97-.83,3.15-.83,1.76,0,3.19.56,4.27,1.68,1.09,1.12,1.63,2.71,1.63,4.78v11.22h-3.78v-9.95c0-1.39-.29-2.47-.88-3.23-.59-.76-1.46-1.14-2.61-1.14-.7,0-1.33.18-1.91.55-.58.37-1.04.9-1.39,1.58-.35.68-.52,1.53-.52,2.53Z"/>
    <path class="cls-1" d="M214.45,25.51c-.52.26-1.03.44-1.53.54-.5.1-1.04.15-1.63.15-1.11,0-2.08-.21-2.92-.62-.84-.41-1.49-1.05-1.96-1.91-.47-.86-.7-1.92-.7-3.18v-8.71h-3.69v-3.26h3.69V3.39h3.78v5.12h5.12v3.26h-5.12v7.83c0,1.11.24,1.9.73,2.36.49.47,1.17.7,2.04.7.39,0,.77-.04,1.14-.11.37-.08.72-.2,1.04-.38v3.33Z"/>
  </g>
</svg>