<?xml version="1.0" encoding="UTF-8"?>
<svg id="Layer_1" data-name="Layer 1" xmlns="http://www.w3.org/2000/svg" viewBox="0 0 121.34 47.62">
  <defs>
    <style>
      .cls-1 {
        fill: #fff;
      }
    </style>
  </defs>
  <path class="cls-1" d="M72.35,35.5c-.02-.17-.06-.32-.06-.46-.1-2.87-.04-28.2.08-28.94.18-.02.37-.06.56-.06,1.38,0,2.77.02,4.15-.02.49-.01.78.18,1.06.55,2.5,3.22,5.01,6.43,7.52,9.64,1.81,2.32,3.62,4.64,5.44,6.96.13.17.24.37.51.49.07-.42.03-.79.03-1.16,0-.4,0-.8,0-1.21v-12.83c0-.4,0-.81,0-1.21,0-.37-.04-.75.06-1.16.53-.1,1.06-.04,1.58-.05.53,0,1.06,0,1.58,0s1.06-.01,1.58,0c.52.01,1.05-.07,1.59.07.03.1.08.19.08.29.01.23.01.45.01.68,0,9.16,0,18.31,0,27.47,0,.32.05.65-.1.99-.23.01-.46.03-.68.03-1.31,0-2.62-.02-3.92.01-.51.01-.83-.17-1.13-.56-2.55-3.28-5.11-6.54-7.67-9.81-1.75-2.24-3.5-4.48-5.26-6.71-.15-.19-.25-.43-.55-.53-.1.27-.06.52-.06.77,0,2.92,0,5.84,0,8.75,0,2.39,0,4.78,0,7.17,0,.27-.02.54-.03.84-.74.13-1.45.05-2.14.07-.7.01-1.41.01-2.11,0-.7-.01-1.4.06-2.12-.06Z"/>
  <path class="cls-1" d="M18.21,23.07c-.71-.09-11.16-.09-11.91-.02-.03.15-.07.32-.08.48,0,.81,0,1.61,0,2.42,0,2.89,0,5.79,0,8.68,0,.27-.01.55-.02.84-.12.04-.21.09-.3.09-1.86,0-3.72,0-5.58,0-.07,0-.14-.03-.26-.06-.02-.14-.04-.28-.05-.42,0-.15,0-.3,0-.45,0-9.21,0-18.42,0-27.63,0-.27.01-.54.02-.85.7-.15,1.38-.06,2.05-.08.68-.02,1.36-.01,2.04,0,.67.01,1.35-.06,2.06.06.1.72.04,1.42.05,2.12.01.7,0,1.41,0,2.11v4.3c0,.7,0,1.4,0,2.14.18.04.32.09.46.1.23.02.45,0,.68,0,3.32,0,6.64,0,9.96,0,.27,0,.55.05.83-.08.14-.26.09-.54.09-.81,0-2.69,0-5.38,0-8.08,0-.45,0-.91,0-1.36,0-.14.03-.29.05-.47.15-.02.27-.05.39-.05,1.41-.05,5.09-.02,5.69.06.03.13.07.27.09.41.02.2,0,.4,0,.6,0,9.13,0,18.27,0,27.4,0,.32.04.65-.07.95-.63.1-5.35.11-6.09,0-.12-.22-.07-.47-.07-.71,0-1.66,0-3.32,0-4.98,0-1.96,0-3.92,0-5.89,0-.27-.02-.54-.03-.85Z"/>
  <path class="cls-1" d="M108.35,30.03c.31.12.59.08.86.08,3.75,0,7.49,0,11.24,0,.27,0,.55-.06.81.07.03.08.07.15.07.22,0,1.58.01,3.17.01,4.75,0,.12-.03.25-.05.4-.15.03-.29.08-.43.09-.17.02-.35,0-.53,0-5.53,0-11.07,0-16.6,0-.3,0-.6.04-.93-.09-.02-.15-.05-.29-.06-.43-.01-.18,0-.35,0-.53,0-9.16,0-18.31,0-27.47,0-.32-.07-.65.11-.99.12-.02.24-.04.36-.05,1.86-.07,16.96-.02,17.6.06.03.11.09.22.09.34,0,1.58,0,3.17,0,4.75,0,.1-.04.19-.06.33-.2.02-.39.06-.58.07-1.03,0-2.06,0-3.09,0-2.64,0-5.28,0-7.92,0-.27,0-.55.01-.84.02-.03.16-.08.28-.08.4,0,1.84,0,3.67,0,5.51,0,.1.02.19.04.31.26.16.55.1.81.1,2.77,0,5.53,0,8.3,0,.45,0,.91,0,1.36,0,.17,0,.34.03.54.05.15.59.06,1.17.08,1.74.02.58,0,1.16,0,1.74,0,.57.03,1.15-.03,1.73-.3.13-.58.09-.85.09-3.12,0-6.24,0-9.36,0-.27,0-.54.02-.86.03-.08.59-.03,1.14-.04,1.68,0,.55,0,1.11,0,1.66s0,1.11,0,1.66c0,.55-.03,1.1.03,1.65Z"/>
  <path class="cls-1" d="M29.68,6.1c.15-.03.26-.06.38-.07,1.13-.06,5.28-.01,5.83.07.03.13.07.27.08.42.01.17,0,.35,0,.53,0,9.2,0,18.4,0,27.6,0,.3.05.6-.06.88-.61.14-2.76.17-5.65.1-.19,0-.39-.04-.57-.06-.09-.65-.15-27.16-.07-29.08,0-.12.03-.24.06-.38Z"/>
  <path class="cls-1" d="M67.71,35.48c-.74.1-5.56.1-6.23.01-.03-.11-.07-.23-.08-.35-.02-.2-.01-.4-.01-.6,0-9.16,0-18.31,0-27.47,0-.32-.06-.65.09-.96.54-.11,5.12-.14,6.14-.04.03.12.08.26.09.4.02.23,0,.45,0,.68,0,9.1,0,18.21,0,27.31,0,.32,0,.65-.01,1Z"/>
  <path class="cls-1" d="M41.46,31.95c.16-.02.28-.05.4-.05,5.75,0,11.51,0,17.22,0,.07.08.13.11.14.15.07.51.05,2.75-.02,3.35-.12.03-.26.08-.4.09-.17.02-.35,0-.53,0-5.3,0-10.61,0-15.91,0-.3,0-.6.05-.87-.08-.11-.56-.13-2.57-.03-3.47Z"/>
  <path class="cls-1" d="M42.92,46.32c.29-.13.55-.17.75.12.18.26.43.41.73.51.64.2,1.52-.16,1.53-1.08,0-.1,0-.2,0-.3,0-.07-.02-.15-.04-.27-.17.09-.32.17-.46.25-1.01.58-2.47.06-2.69-1.35-.04-.27-.04-.55-.01-.83.16-1.33,1.52-2.03,2.71-1.4.13.07.25.16.4.26.07-.13.11-.3.21-.37.29-.19.61-.01.62.34,0,1.18,0,2.37,0,3.55,0,.22-.05.45-.11.67-.14.49-.47.84-.93,1.03-.67.28-1.33.23-1.97-.11-.39-.21-.66-.53-.72-1.01ZM45.93,43.73c0-.76-.46-1.31-1.12-1.37-.68-.06-1.22.34-1.37,1.02-.16.73.18,1.47.81,1.67.21.07.45.09.66.05.66-.11,1.03-.64,1.03-1.37Z"/>
  <path class="cls-1" d="M76.15,45.65h-.63c-.11-.44-.05-.87-.06-1.28-.01-.4,0-.8,0-1.21,0-.42.01-.85.02-1.25q.48-.13.76.17c.89-.52,1.74-.53,2.5.33.14-.12.25-.25.38-.35.53-.4,1.1-.45,1.7-.2.57.24.83.72.87,1.31.05.8.02,1.6.01,2.38-.23.17-.41.15-.64.06-.02-.13-.06-.27-.07-.42,0-.48,0-.95,0-1.43,0-.2,0-.4-.03-.6-.07-.48-.39-.77-.85-.81-.55-.05-.97.2-1.1.7-.07.29-.08.6-.09.89-.03.55.03,1.1-.04,1.69-.2.01-.36.02-.56.04-.03-.16-.08-.3-.08-.45-.01-.48,0-.95,0-1.43,0-.18,0-.35-.01-.53-.07-.56-.41-.89-.92-.92-.57-.03-.98.26-1.1.81-.05.22-.04.45-.04.67,0,.57,0,1.15,0,1.81Z"/>
  <path class="cls-1" d="M22.44,43.13c.14.14.27.25.38.38.58.69.38,1.63-.43,2.01-.18.08-.38.15-.58.15-.68.02-1.35,0-2.04,0-.04-.13-.1-.22-.1-.31,0-1.43,0-2.86,0-4.3,0-.07.03-.15.05-.24.09-.03.18-.08.27-.09.55,0,1.11-.01,1.66,0,.22,0,.45.07.65.15.77.34.97,1.23.45,1.88-.09.12-.2.21-.31.33ZM20.43,43.45c-.04.6-.14,1.12.06,1.61.46,0,.88.04,1.3,0,.67-.07.79-.86.47-1.27-.16-.21-.4-.31-.65-.33-.37-.03-.74,0-1.18,0ZM20.41,42.77c.49.11.88.09,1.27.04.21-.03.38-.12.5-.29.28-.39.12-.94-.34-1.11-.45-.17-.92-.12-1.4-.05-.02.21-.05.38-.05.54,0,.27.01.54.02.86Z"/>
  <path class="cls-1" d="M41.77,30.34c.03-.87.54-1.82,1.18-2.18.19-.11.42-.18.64-.19,1.21-.02,2.41-.02,3.62-.02.65,0,1.08.35,1.38.89.26.49.38,1.02.54,1.72-.21-.23-.32-.32-.4-.43-.4-.5-.93-.76-1.57-.76-1.13,0-2.26,0-3.39,0-.6,0-1.13.21-1.58.61-.13.11-.26.22-.42.35Z"/>
  <path class="cls-1" d="M35.64,45.61c-.42.14-.68.09-.78-.33-.14.08-.26.16-.39.23-.85.52-2.25.26-2.67-1.06-.15-.47-.15-.94-.01-1.41.32-1.1,1.49-1.62,2.52-1.15.18.08.34.19.55.31.17-.57,0-1.13.14-1.7.2-.01.38-.02.54-.03.06.09.11.13.11.17.01.58.02,1.15.03,1.73,0,.85,0,1.7,0,2.56,0,.22-.02.45-.03.68ZM34.94,43.68s0-.14-.02-.24c-.09-.59-.52-1.02-1.09-1.08-.63-.06-1.13.27-1.33.87-.14.4-.11.8.06,1.18.24.56.84.84,1.43.69.62-.16.96-.64.95-1.42Z"/>
  <path class="cls-1" d="M98.15,44.65c.15-.48.29-.95.44-1.43.12-.38.23-.77.34-1.15.06-.2.2-.27.4-.28.26,0,.39.06.46.29.22.72.42,1.44.64,2.17.04.14.1.26.2.52.11-.33.18-.53.24-.74.17-.63.33-1.26.51-1.89.1-.36.22-.39.68-.23-.08.58-.83,3.02-1.16,3.75h-.66c-.28-.9-.56-1.78-.86-2.74-.26.33-.27.65-.38.94-.1.28-.17.58-.26.86-.1.31-.2.61-.31.94h-.71c-.41-1.25-.82-2.48-1.16-3.71.21-.21.4-.17.59-.09.04.04.08.07.1.12.21.75.42,1.5.64,2.24.04.14.09.28.14.42.04,0,.08.01.13.02Z"/>
  <path class="cls-1" d="M48.62,24.36c-.12-.11-.21-.19-.29-.28-.39-.45-.89-.64-1.47-.63-.38,0-.75.02-1.13.02-.53,0-1.06.02-1.58,0-.75-.03-1.38.19-1.88.76-.05.05-.11.09-.22.18-.02-.13-.06-.21-.04-.29.12-.52.3-1.01.6-1.45.27-.4.64-.63,1.13-.64,1.05-.02,2.11-.04,3.16-.05.54,0,.97.24,1.26.7.27.43.46.89.52,1.4,0,.07-.03.14-.06.27Z"/>
  <path class="cls-1" d="M42.37,18.14c-.04-.63.13-1.17.43-1.67.27-.47.67-.72,1.23-.72.85,0,1.7-.02,2.56,0,.82,0,1.2.26,1.47,1.02.15.42.3.84.33,1.29-.24,0-.29-.16-.37-.27-.3-.39-.7-.59-1.17-.59-1.05,0-2.1.03-3.15.07-.39.01-.72.21-.99.49-.12.12-.23.25-.34.38Z"/>
  <path class="cls-1" d="M47.95,12c-.25-.28-.36-.45-.51-.57-.33-.26-.73-.3-1.14-.28-.6.02-1.2.06-1.8.04-.76-.03-1.39.16-1.8.85-.02.04-.08.05-.18.12.02-.15.02-.26.05-.35.14-.45.27-.91.44-1.36.18-.46.54-.72,1.04-.73.85-.01,1.7,0,2.56-.01.45,0,.76.23.97.6.26.46.41.96.37,1.69Z"/>
  <path class="cls-1" d="M86.41,43.77c0,1.63-1.62,2.39-2.88,1.8-.84-.39-1.26-1.39-1.01-2.37.26-1.01,1.18-1.61,2.24-1.45,1,.15,1.66.95,1.65,2.02ZM83.19,43.7c0,.11,0,.19.02.26.07.69.5,1.14,1.14,1.18.65.04,1.22-.42,1.3-1.1.03-.27.02-.56-.04-.82-.14-.56-.64-.9-1.25-.87-.56.02-1,.38-1.12.94-.03.15-.04.3-.05.41Z"/>
  <path class="cls-1" d="M74.66,43.76c0,1.17-.83,2.01-1.99,2.01-1.14,0-1.97-.87-1.96-2.04.01-1.17.84-2,2-2,.97,0,2,.72,1.95,2.04ZM71.46,43.64c0,.16,0,.21,0,.26.04.7.46,1.16,1.1,1.23.64.07,1.21-.36,1.37-1.03.08-.33.04-.65-.07-.96-.2-.53-.66-.82-1.24-.79-.55.03-.99.4-1.12.95-.03.15-.03.3-.04.34Z"/>
  <path class="cls-1" d="M53.41,43.73c0-1.2.81-2.01,1.98-2,1.16,0,1.96.85,1.95,2.03,0,1.17-.8,2-2,2-1.26,0-1.97-.92-1.94-2.03ZM56.63,43.77c.02-.95-.66-1.57-1.53-1.4-.54.1-.92.56-.98,1.19-.07.71.23,1.28.77,1.49.77.3,1.74-.2,1.74-1.28Z"/>
  <path class="cls-1" d="M92.21,43.79c-.04-1.44,1.04-2.06,1.92-2.06,1.17,0,1.99.79,2.01,1.98.02,1.21-.79,2.07-2.01,2.06-1.27,0-1.94-.94-1.92-1.97ZM95.43,43.77c.04-.84-.58-1.61-1.61-1.38-.55.12-.9.65-.91,1.32-.01.69.3,1.18.85,1.36.87.27,1.65-.34,1.67-1.3Z"/>
  <path class="cls-1" d="M58.19,41.82h.5c.04.08.1.15.1.21.01.58,0,1.16.02,1.73,0,.25.03.5.11.74.14.43.53.66,1,.63.47-.03.84-.3.93-.74.06-.27.06-.55.07-.82.01-.55.01-1.1.02-1.59.2-.26.39-.2.58-.15.04.06.09.1.09.14.06,1.2.02,2.41.03,3.62-.35.14-.62.12-.82-.17-.21.09-.41.2-.62.26-1.09.27-2.03-.34-2.06-1.46-.02-.68,0-1.36,0-2.04,0-.1.03-.19.06-.36Z"/>
  <path class="cls-1" d="M39.11,45.65h-.61c-.03-.12-.08-.21-.08-.3,0-1.03,0-2.06,0-3.09,0-.18-.01-.38.2-.44.19-.06.4-.07.53.16.02.04.06.07.1.11.34-.18.67-.35,1.06-.37.71-.02,1.57.4,1.61,1.44.03.8,0,1.6,0,2.39q-.3.11-.58.06s-.07-.08-.07-.13c-.01-.53-.02-1.05-.03-1.58,0-.2,0-.4-.02-.6-.07-.62-.44-.96-1.05-.95-.59,0-.98.36-1.02.98-.03.48-.01.95-.02,1.43,0,.27-.02.55-.03.89Z"/>
  <path class="cls-1" d="M26.74,41.86c.2-.03.29-.06.39-.06.14,0,.24.06.28.2.02.07.03.15.03.22,0,1.05,0,2.11,0,3.16,0,.07-.03.14-.06.25-.27.08-.52.14-.7-.22-.13.06-.26.12-.39.19-.38.18-.77.2-1.17.11-.57-.13-.92-.48-1.08-1.03-.04-.14-.08-.29-.08-.44-.01-.7-.01-1.4,0-2.11,0-.22.11-.32.33-.33.25-.01.37.09.38.35.01.48,0,.95,0,1.43,0,.23,0,.45.02.68.07.53.42.86.95.89.52.03.95-.25,1.08-.75.05-.21.05-.45.05-.67,0-.6,0-1.2,0-1.86Z"/>
  <path class="cls-1" d="M47.39,2.04c-.07,0-.1,0-.11-.01-.32-.51-.78-.64-1.35-.56-.37.05-.75.03-1.12.03-1.01-.01-1.11.03-1.76.79-.05-.44.12-.81.19-1.19.04-.22.15-.42.25-.62.13-.26.35-.42.65-.43.73-.01,1.45-.03,2.18-.04.37,0,.61.15.72.52.15.5.29.99.35,1.52Z"/>
  <path class="cls-1" d="M42.12,21.16c.11-.79.34-1.39.75-1.92.21-.27.49-.45.83-.46.9-.01,1.8,0,2.72,0,.19.46.1.87.08,1.33-.17.03-.31.07-.45.08-.45.02-.91.02-1.36.02-1.38,0-1.48.04-2.57.95Z"/>
  <path class="cls-1" d="M48.79,27.17c-.15-.15-.24-.22-.32-.31-.39-.45-.89-.63-1.47-.63-.63,0-1.25.01-1.88,0-.22,0-.44-.03-.69-.04-.11-.45-.05-.86-.05-1.31.17-.03.31-.08.45-.08.73,0,1.45,0,2.18-.01.52-.01.92.21,1.21.62.36.49.59,1.03.56,1.76Z"/>
  <path class="cls-1" d="M51.12,43.1c.17-.34.31-.6.44-.87.19-.38.37-.77.56-1.15.19-.37.25-.38.84-.23-.04.12-.07.23-.13.34-.35.67-.68,1.35-1.05,2-.26.45-.38.92-.35,1.44.02.32.03.65-.05,1h-.53c-.18-.24-.1-.53-.1-.8-.01-1.02,0-1.02-.49-1.93-.35-.66-.7-1.33-1.04-1.99.46-.25.64-.23.82.11.25.49.49.99.74,1.49.09.17.2.34.34.58Z"/>
  <path class="cls-1" d="M68.86,45.64c-.21.01-.38.02-.52.03-.21-.19-.16-.4-.16-.59,0-.98,0-1.96,0-2.94,0-.25-.02-.49-.04-.78-.44-.04-.83-.07-1.24-.1v-.4c.08-.04.14-.1.21-.1.93-.01,1.86-.02,2.79-.01.09,0,.22.04.26.11.06.1.04.23.06.35-.41.19-.83.02-1.26.15-.02.15-.06.32-.07.49,0,1.01,0,2.01,0,3.02,0,.25-.02.49-.03.77Z"/>
  <path class="cls-1" d="M47.76,8.98c-.15-.21-.21-.29-.26-.36-.18-.28-.43-.41-.75-.43-.28-.01-.55-.02-.83-.03-.52-.02-1.05.05-1.6-.06-.18-.45-.07-.88-.07-1.35.2-.02.35-.05.49-.06.55,0,1.11.01,1.66-.02.53-.03.86.21,1.06.68.2.46.37.93.31,1.62Z"/>
  <path class="cls-1" d="M42.8,5.51s-.05-.1-.04-.14c.15-.51.28-1.01.45-1.51.1-.31.34-.51.68-.51.7,0,1.4-.06,2.12.04.15.43.08.85.06,1.3-.15.03-.29.08-.44.08-.43.01-.86.03-1.28,0-.57-.03-1.04.14-1.36.63-.03.04-.07.07-.11.1-.02.01-.05,0-.07.01Z"/>
  <path class="cls-1" d="M45.03,14.11v-1.29c.14-.03.28-.08.42-.09.4-.01.8,0,1.21,0,.56.01.96.28,1.17.8.2.49.37.98.36,1.63-.14-.17-.23-.26-.29-.35-.32-.49-.8-.66-1.36-.64-.38.01-.75,0-1.13,0-.1,0-.19-.03-.37-.07Z"/>
  <path class="cls-1" d="M87.85,45.64h-.6c-.02-.18-.06-.32-.06-.47,0-.95,0-1.9,0-2.86,0-.03,0-.05,0-.08,0-.18,0-.37.21-.43.23-.06.45-.03.55.24,0,.02.03.04.05.06.33-.16.62-.44,1.03-.35.03.04.08.08.09.12.01.15,0,.29,0,.47-.15.05-.29.09-.43.13-.51.14-.72.36-.76.88-.03.32,0,.65-.02.98-.01.42.05.85-.06,1.3Z"/>
  <path class="cls-1" d="M62.67,41.89c.4-.19.62-.1.77.19q.6-.29,1.11-.31c.02.18.03.37.05.56-.13.05-.22.1-.31.12-.68.16-.89.38-.93,1.07-.03.45,0,.9-.01,1.35,0,.24-.02.49-.04.77h-.53c-.03-.05-.08-.09-.09-.13-.06-1.2-.02-2.4-.03-3.62Z"/>
  <path class="cls-1" d="M89.91,41.86c.34-.14.57-.06.71.25.37-.15.65-.46,1.12-.32,0,.18.02.36.03.57-.18.05-.32.09-.47.12-.43.07-.65.35-.73.76-.04.22-.04.45-.05.67,0,.55,0,1.1,0,1.59-.2.26-.4.16-.57.15-.04-.07-.09-.11-.09-.16-.06-.75-.04-3.08.04-3.64Z"/>
  <path class="cls-1" d="M30.84,45.65h-.55c-.03-.1-.08-.17-.08-.23,0-.88-.01-1.75-.01-2.63,0-.58,0-1.15,0-1.73,0-.17.03-.34.04-.55.19-.01.35-.02.49-.03.06.07.1.11.11.15.02.1.04.2.04.3,0,1.45,0,2.91,0,4.36,0,.1-.02.2-.04.37Z"/>
  <path class="cls-1" d="M44.67,12.8c.02.21.05.38.05.55,0,.25-.01.49-.02.74-.48.1-.93.17-1.35.3-.43.12-.66.52-.97.88-.01-.13-.05-.21-.03-.26.15-.45.3-.91.48-1.35.3-.73.6-.92,1.38-.91.14,0,.29.03.47.06Z"/>
  <path class="cls-1" d="M29.08,45.64h-.58c-.02-.16-.05-.28-.05-.4,0-.98,0-1.95,0-2.93,0-.52.09-.57.64-.41.12.66.11,3.14-.01,3.74Z"/>
  <path class="cls-1" d="M43.94,24.87c.08.44.07.85,0,1.27-.38.12-.75.19-1.08.36-.33.16-.62.42-.99.67.02-.17.02-.29.05-.4.15-.54.39-1.03.74-1.47.32-.41.72-.59,1.27-.43Z"/>
  <path class="cls-1" d="M37.31,45.64h-.53c-.13-.68-.12-3.16,0-3.8h.47c.04.06.09.1.09.14.07.65.05,3.06-.03,3.66Z"/>
  <path class="cls-1" d="M46.83,20.07c0-.26,0-.53,0-.8,0-.15.03-.29.05-.42.23-.11.43-.09.59.05.22.2.46.4.62.64.29.44.43.95.45,1.6-.31-.28-.51-.53-.76-.68-.27-.17-.59-.25-.94-.39Z"/>
  <path class="cls-1" d="M43.94,6.77c0,.33,0,.6.02.87,0,.3-.08.5-.38.65-.3.15-.53.42-.79.63-.1-.36.01-.93.34-1.54.15-.28.31-.57.81-.61Z"/>
  <path class="cls-1" d="M47.57,5.75c-.35-.53-.62-.96-1.16-1.05-.1-.45-.1-.86-.02-1.26.21-.15.37-.08.48.07.14.2.27.42.37.65.19.46.28.95.34,1.59Z"/>
  <path class="cls-1" d="M29.25,40.79c-.01.24-.21.42-.45.41-.25,0-.42-.19-.42-.43,0-.28.21-.47.49-.44.23.02.4.22.39.47Z"/>
  <path class="cls-1" d="M37.48,40.78c-.01.24-.2.42-.44.41-.24,0-.43-.18-.44-.42-.01-.26.22-.47.49-.45.24.02.41.22.4.46Z"/>
</svg>