<?xml version="1.0" encoding="UTF-8"?>
<svg id="Layer_1" data-name="Layer 1" xmlns="http://www.w3.org/2000/svg" viewBox="0 0 170.07 38.72">
  <defs>
    <style>
      .cls-1 {
        fill: #fff;
      }
    </style>
  </defs>
  <path class="cls-1" d="M13.14,3.41H4.03C1.73,3.41,0,5.19,0,7.49v26.96c0,2.21,1.77,3.98,3.88,3.98s3.88-1.77,3.88-3.88v-7.82h5.85c7,0,11.75-4.65,11.75-11.56S20.34,3.41,13.14,3.41M12.71,19.91h-4.94v-9.54h4.99c2.54,0,4.6,2.16,4.6,4.84,0,2.54-2.06,4.7-4.65,4.7"/>
  <path class="cls-1" d="M33.18,27.28v-.55c-.01.35,0,.55,0,.55"/>
  <path class="cls-1" d="M43.98,19.91c-4.96,0-8.78,4.06-8.78,9.28s3.79,9.42,8.78,9.38c4.99,0,8.81-4.06,8.81-9.31s-3.83-9.35-8.81-9.35M43.98,34.05c-2.13,0-3.69-2-3.69-4.79s1.57-4.69,3.69-4.69,3.69,1.96,3.69,4.72-1.53,4.76-3.69,4.76"/>
  <path class="cls-1" d="M34.92,21.85s0,0,.01-.02c0,0,0,.01-.01.02h0Z"/>
  <path class="cls-1" d="M78.09,32.36c-.48,0-.89.14-2.08.82-1.13.62-2.32.96-3.45.96-1.44,0-2.8-.65-3.45-1.5-.31-.41-.58-1.06-.89-1.88h10.11c1.67,0,2.29-.58,2.29-2.15,0-4.92-4.06-9.02-8.92-9.02-5.16,0-9.12,4.2-9.12,9.71s3.96,9.43,9.64,9.43c4.17,0,8.13-2.08,8.13-4.24,0-1.2-1.03-2.12-2.26-2.12M71.8,23.78c1.91,0,3.11,1.23,3.59,3.62h-7.28c.51-2.36,1.81-3.62,3.69-3.62"/>
  <path class="cls-1" d="M85.6,14.13c-1.88,0-3.45,1.53-3.45,3.41v17.53c0,1.84,1.57,3.37,3.45,3.37s3.37-1.53,3.37-3.41v-17.49c0-1.88-1.53-3.41-3.37-3.41M85.6,4.21c-2.18,0-3.93,1.75-3.93,3.94s1.75,3.85,3.93,3.85,3.8-1.71,3.8-3.85-1.75-3.94-3.8-3.94"/>
  <path class="cls-1" d="M110.1,14.3c-1.82-1.73-3.77-2.64-6.36-2.64-2.11,0-4.41.67-5.8,1.77-.29.19-.62.53-1.15,1.06-.61-2.51-2.5-2.68-3.26-2.68-2.06,0-3.06,1.73-3.06,3.79v19.14c0,2.06,1,3.74,3.02,3.74s3.74-1.68,3.74-3.69v-12.57c0-2.35,1.92-4.32,4.27-4.32s4.32,1.97,4.32,4.32v12.61c0,2.02,1.37,3.69,3.43,3.69s3.41-1.68,3.41-3.74v-13.82c.01-2.6-.77-4.99-2.54-6.67"/>
  <path class="cls-1" d="M133.51,20.09c-2,0-3.41,1.8-3.41,3.81v3.36c0,3.02-1.53,4.75-4.27,4.75s-4.88-1.73-4.88-4.75v-11.65c.08-1.76-.76-3.8-3.41-3.79-2.15,0-3.41,1.61-3.41,3.69v12.42c0,6.71,3.7,10.6,11.09,10.6s11.7-3.88,11.7-10.6v-4.15c0-2.06-1.41-3.69-3.41-3.69"/>
  <path class="cls-1" d="M150.78,15.45c0,1.55-1.07,2.86-2.55,3.21-.26.06-.53.1-.81.1h-2.2l.05,15.93c0,2.07-1.43,3.74-3.45,3.74s-3.41-1.61-3.38-3.74v-15.97h-1.25c-1.92,0-3.41-1.53-3.41-3.31s1.49-3.26,3.41-3.26h1.2v-4.32c0-2.02,1.42-3.69,3.48-3.69h.08c1.82,0,3.2,1.75,3.3,3.47,0,.07,0,.15,0,.23l-.05,4.32h2.25c.17,0,.33.01.49.03,1.59.24,2.82,1.62,2.82,3.27"/>
  <path class="cls-1" d="M170.07,30.32c0,4.84-4.27,8.25-10.17,8.25-5.28,0-10.07-2.59-10.07-5.47,0-1.73,1.39-3.22,3.12-3.22.62,0,1.44.29,2.35.67l1.34.77c1.25.67,2.64,1.06,3.55,1.06,1.49,0,2.64-.86,2.64-1.97,0-.86-.96-1.63-2.83-2.3l-1.97-.77c-2.3-.82-4.03-1.63-5.04-2.35-1.14-.84-1.94-2.24-2.23-3.81-.08-.42-.12-.85-.12-1.28,0-3.6,2.35-6.44,5.95-7.63h0c1.2-.4,2.54-.61,3.98-.61,4.7,0,8.87,2.3,8.87,5.04,0,1.63-1.3,3.02-2.93,3.02-.48,0-1.15-.14-1.63-.38l-1.3-.58c-1.25-.53-2.69-.86-3.5-.86-1.3,0-2.25.67-2.25,1.58,0,1.06.67,1.44,3.98,2.73,2.59,1.01,3.69,1.53,4.99,2.3,2.06,1.35,3.26,3.5,3.26,5.81"/>
  <path class="cls-1" d="M34.92,21.85s0,0,.01-.02c0,0,0,0-.01.02h0Z"/>
  <path class="cls-1" d="M35.08,21.63c-.04.06-.09.11-.13.17.02-.03.06-.09.13-.17"/>
  <path class="cls-1" d="M151.72,12.95c5.01-9.34,13.11-10.65,13.11-10.65-6.19.03-11.08,5.8-11.08,5.8,1.67-11.54,14.6-6.71,14.6-6.71-1.41,4.28-3.6,5.95-12.1,8.46-3.06.91-4.78,4.27-4.78,4.27,0,0-.03-3.15-3.11-5.86-3.07-2.7-.95-8.26-.95-8.26,0,0,.89,1.44,2.4,2.38,1.51.94,4.64,3.35,2.64,7.85,0,0-.61-5.08-3.3-6.6,0,0,2.09,2.05,2.62,5.97.33,2.41-.06,3.36-.06,3.36"/>
  <path class="cls-1" d="M57.84,38.57h-.32c-1.8,0-3.25-1.46-3.25-3.25V5.97c0-1.8,1.46-3.25,3.25-3.25h.32c1.8,0,3.25,1.46,3.25,3.25v29.35c0,1.8-1.46,3.25-3.25,3.25"/>
  <path class="cls-1" d="M54.68,9.73h0s-.03,0-.04-.01h0c-14.92-2.5-20.39,3.72-20.92,4.43v-.69c0-1.88-1.53-3.41-3.41-3.41s-3.41,1.53-3.41,3.41v21.69c0,1.88,1.53,3.41,3.41,3.41s3.41-1.53,3.41-3.41v-6.3c.13-3.49,1.91-15.9,20.68-13.72v-.02s.03.01.05.02c11.21,3.72,20.67-2.23,20.67-2.23-6.09,1.11-19.6-2.93-20.44-3.18"/>
  <path class="cls-1" d="M33.72,29.76v-.88c-.02.55,0,.88,0,.88"/>
</svg>