<?xml version="1.0" encoding="UTF-8"?>
<svg id="Layer_1" data-name="Layer 1" xmlns="http://www.w3.org/2000/svg" viewBox="0 0 63.74 63.74">
  <defs>
    <style>
      .cls-1 {
        fill: #fff;
      }

      .cls-1, .cls-2 {
        fill-rule: evenodd;
      }

      .cls-2 {
        fill: #2a04f6;
      }
    </style>
  </defs>
  <path class="cls-1" d="M10.24,0h43.25c5.63,0,10.24,4.61,10.24,10.24v43.25c0,5.63-4.61,10.24-10.24,10.24H10.24c-5.63,0-10.24-4.61-10.24-10.24V10.24C0,4.61,4.61,0,10.24,0"/>
  <path class="cls-2" d="M44.42,45.05h-5.7c-.19.01-.37.01-.54,0-.18,0-.35-.03-.53-.05-.17-.02-.34-.05-.51-.08-.17-.04-.34-.08-.5-.12-.16-.04-.32-.1-.47-.16-.16-.06-.31-.12-.45-.19-.14-.07-.28-.14-.42-.22-.14-.08-.27-.17-.39-.25h0c-.12-.09-.24-.19-.36-.29-1.78-1.57-2-5.02-.96-6.89.06-.1.12-.2.18-.3.07-.1.13-.19.21-.27.07-.09.15-.17.22-.25.08-.08.16-.16.25-.23.08-.07.17-.14.26-.2.09-.06.19-.12.28-.17.1-.05.19-.1.29-.15.1-.04.2-.08.3-.12.1-.03.21-.06.32-.09.1-.02.2-.04.31-.06.09-.02.22-.02.35-.03h.16c-.1-.08-.21-.16-.32-.25h0s0,0,0,0l-.11-.09c-.11-.09-.22-.19-.33-.3-.11-.11-.22-.21-.32-.31-.1-.11-.2-.22-.3-.33-.1-.12-.2-.23-.28-.34-.09-.11-.18-.23-.27-.36-.09-.12-.17-.24-.25-.37-.08-.13-.16-.25-.23-.38-.07-.13-.15-.26-.21-.39-.07-.13-.13-.26-.2-.4-.06-.14-.12-.28-.18-.41-.05-.13-.1-.27-.16-.42-.05-.14-.09-.28-.13-.42-.04-.15-.08-.3-.11-.43-.03-.14-.06-.28-.09-.43-.03-.14-.05-.28-.07-.43-.02-.15-.04-.3-.05-.43l-.03-.4c0-.13,0-.27,0-.41,0-.3.01-.6.04-.89.03-.3.07-.6.13-.88.06-.29.13-.58.22-.87.09-.29.19-.57.3-.84.11-.28.24-.55.38-.81.14-.26.3-.52.46-.77.17-.25.34-.49.54-.72.2-.24.4-.46.6-.67.21-.21.43-.41.67-.6.23-.19.47-.37.72-.54.25-.16.5-.32.77-.46.26-.14.53-.27.81-.38.27-.11.55-.21.84-.3.29-.09.58-.16.86-.22.28-.06.58-.1.88-.13.29-.03.59-.04.89-.04h10.37v4.03h0c.05.09.11.17.16.26.06.1.12.19.17.28.05.09.1.18.16.29.06.11.11.21.15.3.05.1.1.2.14.31.04.09.08.19.13.31h0c.04.1.08.21.12.32.04.11.07.21.11.32.04.12.07.23.1.33.03.1.06.21.08.33.03.11.05.22.07.34.02.12.04.23.06.34.02.11.03.22.05.35.01.11.02.23.03.34,0,.1.01.22.02.34,0,.13,0,.24,0,.34,0,.29-.02.59-.04.89-.03.3-.07.6-.13.88-.06.29-.13.58-.22.86-.09.29-.19.57-.3.84-.11.27-.24.54-.38.81-.14.27-.3.52-.46.77-.17.25-.35.49-.54.72-.19.23-.39.46-.6.67-.21.21-.43.41-.67.61-.23.19-.47.37-.72.54-.25.17-.51.32-.77.46-.26.14-.53.27-.81.39-.27.11-.55.21-.84.3-.28.09-.57.16-.86.22h0c-.28.06-.58.1-.88.13-.29.03-.59.04-.89.04h-5.19c-.08,0-.16,0-.24.02-1.04.08-1.61.93-1.58,1.95.02.74.4,1.51,1.15,1.71.08.02.17.04.26.05.09.01.18.02.28.03.1,0,.21.01.31.01l5.04-.02c.31,0,.6.01.89.04.3.03.59.06.87.11.28.05.56.11.85.19.28.08.56.17.82.27.27.1.53.22.78.34.26.13.5.27.74.41.24.15.47.31.7.48.22.17.44.36.64.55.2.19.4.4.59.61h0c.18.21.36.43.53.67.16.23.32.47.46.72.14.25.27.5.39.77.12.26.23.53.32.81.1.28.18.56.25.84.07.29.13.58.17.87.04.29.08.59.1.89l.02.38h-5.11l-.03-.32c-.02-.14-.04-.29-.07-.43-.03-.14-.06-.28-.1-.43-.04-.14-.09-.28-.14-.41-.05-.13-.11-.27-.17-.4-.06-.13-.13-.25-.2-.37-.07-.12-.15-.23-.24-.35-.09-.12-.18-.23-.27-.32-.09-.1-.19-.2-.3-.29-.1-.09-.21-.18-.32-.26-.11-.08-.22-.16-.34-.23-.11-.07-.23-.13-.36-.19-.13-.06-.25-.11-.38-.16-.13-.05-.26-.09-.4-.13-.13-.04-.27-.07-.42-.09-.14-.02-.29-.04-.44-.06-.15-.01-.3-.02-.44-.02M44.4,23.03h-1.6c-.16,0-.31,0-.45.02-.15.01-.3.04-.45.07-.15.03-.3.07-.44.11-.14.04-.28.09-.43.15-.14.06-.28.12-.41.19h0c-.13.07-.26.15-.39.23-.13.09-.25.18-.37.27-.11.09-.22.19-.34.31-.11.11-.21.22-.31.34-.1.12-.19.24-.27.37-.08.13-.16.26-.23.39-.07.13-.13.27-.19.41-.06.14-.11.29-.15.43-.04.14-.08.28-.11.44h0c-.03.15-.05.3-.07.45-.01.14-.02.29-.02.45s0,.31.02.45c.01.15.04.3.07.45h0c.03.15.07.3.11.44.04.14.09.28.15.42.06.14.12.28.19.41.07.14.15.27.23.39.08.13.18.25.27.37.1.12.2.23.31.34h0c.11.11.22.21.34.31.12.1.24.19.37.27.12.08.25.16.39.23.13.07.27.14.41.19.14.06.29.11.43.15.14.04.28.08.44.11.15.03.3.05.45.07.14.01.29.02.45.02h1.6c.16,0,.31,0,.45-.02.15-.01.3-.04.45-.07.15-.03.3-.07.44-.11.14-.04.28-.09.43-.15h0c.14-.06.28-.12.41-.19.13-.07.26-.15.39-.23.13-.09.25-.18.37-.27.12-.1.23-.2.34-.31h0c.11-.11.21-.22.31-.34.1-.12.19-.24.27-.36.08-.12.16-.25.23-.39.07-.13.14-.27.2-.41.06-.14.11-.29.15-.43.04-.14.08-.28.11-.44.03-.15.05-.3.07-.45.01-.14.02-.29.02-.45s0-.31-.02-.45c-.01-.15-.04-.3-.07-.45-.03-.15-.07-.3-.11-.44-.04-.14-.09-.28-.15-.43-.06-.14-.12-.28-.19-.41-.07-.14-.15-.27-.23-.39-.09-.13-.18-.25-.27-.37-.09-.11-.19-.22-.31-.34-.11-.11-.22-.21-.34-.31-.12-.1-.24-.19-.37-.27-.12-.08-.25-.16-.39-.23-.13-.07-.27-.14-.41-.19-.14-.06-.29-.11-.43-.15-.14-.04-.28-.08-.44-.11-.15-.03-.3-.05-.45-.07-.14-.01-.29-.02-.45-.02ZM14.97,36.76c.02.5.13,1.13.49,1.68.07.1.14.21.22.31.08.1.16.2.25.3.09.1.18.19.27.27.09.08.19.17.29.25.1.08.21.16.31.23.11.07.22.14.33.2.11.06.22.12.34.17.12.05.24.1.35.14.11.04.24.08.37.11.13.03.25.06.37.08.12.02.25.04.38.05.13.01.26.02.38.02h3.09c1.07,0,2.13,0,3.2,0,1.07,0,2.13,0,3.2-.02h.27s0,4.52,0,4.52h-10.36c-.27,0-.54-.01-.81-.04-.27-.02-.54-.06-.81-.11-.27-.05-.53-.11-.79-.18-.26-.07-.52-.16-.78-.25-.26-.1-.51-.2-.75-.32-.24-.12-.49-.25-.72-.39-.24-.14-.47-.29-.68-.45-.22-.16-.43-.33-.64-.51-.21-.18-.41-.37-.6-.57-.19-.19-.37-.4-.54-.62-.17-.22-.34-.44-.48-.66-.15-.23-.29-.46-.42-.7-.13-.24-.25-.48-.36-.74-.11-.25-.2-.5-.29-.76-.08-.26-.16-.52-.22-.78-.06-.26-.11-.53-.15-.8h0c-.02-.21-.03-.45-.05-.71l.02-8.17c.02-.71.03-1.39.15-2.09.05-.28.1-.56.18-.83.07-.28.16-.55.25-.82.1-.27.21-.54.33-.79.12-.25.26-.51.41-.76.15-.25.31-.49.47-.72.17-.23.35-.45.54-.67.19-.22.39-.42.6-.62.21-.19.43-.38.66-.56.23-.18.47-.34.7-.5.24-.15.49-.3.74-.43.25-.13.51-.25.78-.35.26-.1.53-.19.81-.28.27-.08.55-.15.83-.2.27-.05.56-.09.84-.12.28-.03.57-.04.86-.04h10.38s0,2.76,0,2.76h0v.66s0,.61,0,.61v.02c.06.08.12.17.16.24.06.1.12.19.17.28.05.09.1.19.16.29.06.11.11.21.15.29h0c.05.11.1.21.14.31.04.1.09.2.13.31h0c.04.11.08.22.12.32.04.1.07.21.11.32.03.1.06.21.1.33.03.12.06.23.09.34.03.11.05.23.07.34.02.12.04.23.06.34.02.11.03.22.05.35.01.11.02.23.03.34,0,.1.01.22.02.34,0,.13,0,.24,0,.34,0,.29-.02.59-.04.89-.03.3-.07.6-.13.88-.06.29-.13.58-.22.87-.09.29-.19.57-.3.84-.11.27-.24.54-.38.81-.14.27-.3.52-.46.77-.17.25-.35.49-.54.72-.19.23-.39.46-.6.67-.21.21-.43.41-.67.61-.23.19-.47.37-.72.54-.25.17-.51.32-.77.46-.26.14-.53.27-.81.38-.27.11-.55.21-.84.3-.28.09-.57.16-.86.22-.29.06-.59.1-.88.13-.29.03-.59.04-.89.04-2.22,0-4.43-.03-6.65-.03ZM21.01,23.03h-1.6c-.15,0-.3,0-.44.02-.14.01-.29.03-.43.06-.14.03-.29.06-.42.1-.14.04-.28.09-.41.14-.14.05-.27.12-.4.18-.13.07-.26.14-.38.22-.12.08-.24.16-.36.26-.12.09-.23.19-.33.29-.1.1-.2.2-.3.32h0c-.1.11-.19.23-.28.35-.08.12-.16.24-.24.37-.07.13-.14.26-.2.39-.06.13-.12.27-.16.41-.05.14-.09.28-.12.42-.03.14-.06.28-.08.43-.02.15-.04.29-.04.43-.02.52-.03,1.04-.03,1.56,0,.53,0,1.06.01,1.6v.24c.01.48.02.97.02,1.45h6.22c.15.01.3,0,.45,0,.15-.01.3-.04.45-.07.15-.03.3-.07.44-.11.14-.04.28-.09.43-.15.14-.06.28-.12.41-.19.14-.07.27-.15.39-.23.13-.08.25-.18.37-.27.12-.1.23-.2.34-.31h0c.11-.11.21-.22.31-.34.1-.12.19-.24.27-.37.08-.12.16-.25.23-.39.07-.13.14-.27.19-.41.06-.14.11-.29.15-.43.04-.14.08-.28.11-.44.03-.15.05-.3.07-.45.01-.14.02-.29.02-.45s0-.31-.02-.45c-.01-.15-.04-.3-.07-.45-.03-.15-.07-.3-.11-.44-.04-.14-.09-.28-.15-.43-.06-.14-.12-.28-.19-.41-.07-.14-.15-.27-.23-.39-.09-.13-.18-.25-.27-.37-.1-.12-.2-.23-.31-.34h0c-.11-.11-.22-.21-.34-.31-.12-.1-.24-.19-.37-.27-.13-.08-.26-.16-.39-.23h0c-.13-.07-.27-.14-.41-.19-.14-.06-.29-.11-.43-.15-.14-.04-.28-.08-.44-.11-.15-.03-.3-.05-.45-.07-.14-.01-.29-.02-.45-.02Z"/>
</svg>