<?xml version="1.0" encoding="UTF-8"?>
<svg id="Layer_1" data-name="Layer 1" xmlns="http://www.w3.org/2000/svg" viewBox="0 0 56.55 85.23">
  <defs>
    <style>
      .cls-1 {
        fill: #fff;
      }
    </style>
  </defs>
  <path class="cls-1" d="M6.19,66.61c1.98,0,2.99-.7,2.99-2.08,0-1.81-1.69-2.45-3.13-2.45H1.87v4.53h4.33ZM6.05,73.13c2.36,0,3.56-.74,3.56-2.2-.02-2.33-2.63-2.52-3.42-2.52H1.87v4.71h4.19ZM0,74.96v-14.59h6.05c2.27,0,4.93,1.09,4.93,4.16,0,1.24-.6,2.3-1.63,2.93,1.3.69,2.1,1.98,2.1,3.5,0,2.55-1.97,4.01-5.41,4.01H0Z"/>
  <path class="cls-1" d="M20.18,61.94c-1.61,0-2.97.51-3.94,1.48-1.02,1.03-1.58,2.53-1.57,4.24.02,2.77,1.75,5.75,5.51,5.75s5.53-2.98,5.53-5.74-1.71-5.73-5.53-5.73M20.18,75.2c-5.05,0-7.36-3.92-7.36-7.55s2.28-7.5,7.36-7.5c2.13,0,3.95.7,5.26,2.01,1.37,1.37,2.11,3.33,2.1,5.52-.02,3.62-2.33,7.51-7.36,7.51"/>
  <path class="cls-1" d="M34.82,75.18c-2.12,0-4.81-.85-6.01-3.22l-.18-.36,1.66-.83.18.36c.76,1.5,2.76,2.28,4.35,2.28,1.2,0,4-.25,4-2.52.01-1.63-1.66-2.07-4.21-2.56-2.54-.5-5.43-1.06-5.43-3.94-.02-1.04.32-1.93,1.01-2.64.97-.99,2.71-1.59,4.63-1.59,2.22,0,3.98.42,5.38,2.52l.24.35-1.57.93-.2-.33c-.9-1.45-2.38-1.66-3.84-1.68-.38,0-3.77.07-3.77,2.39,0,1.38,1.47,1.76,3.89,2.21l.15.03c2.62.5,5.6,1.07,5.6,4.33-.02,2.67-2.21,4.26-5.86,4.26"/>
  <path class="cls-1" d="M48.89,62c-3.2,0-5.53,2.33-5.53,5.55-.02,1.71.53,3.21,1.55,4.25.97.98,2.35,1.5,3.98,1.5,3.8,0,5.51-2.82,5.51-5.63,0-2.62-1.44-5.67-5.51-5.67M53.56,73.64c-1.22.94-2.86,1.46-4.67,1.46-2.17,0-4.01-.7-5.32-2.02-1.35-1.37-2.08-3.33-2.06-5.53.04-3.66,2.33-7.35,7.38-7.35,2.15,0,3.99.7,5.29,2.01,1.34,1.35,2.07,3.29,2.07,5.47,0,1.69-.54,3.37-1.48,4.67l1.78,1.73-1.23,1.26-1.77-1.68Z"/>
  <path class="cls-1" d="M28.15,18.48c-5.35,0-9.71,4.36-9.71,9.71s4.36,9.71,9.71,9.71,9.71-4.36,9.71-9.71-4.35-9.71-9.71-9.71"/>
  <path class="cls-1" d="M28.15,11.58c9.16,0,16.6,7.45,16.6,16.61,0,3.54-1.1,6.9-3.14,9.71h14.69V10.7c0-5.91-4.79-10.7-10.71-10.7h-27.16v14.73c2.81-2.04,6.16-3.14,9.71-3.14"/>
  <path class="cls-1" d="M28,44.79c-9.08-.08-16.45-7.51-16.45-16.6,0-.06,0-.12,0-.17,0-.03,0-.06,0-.09V0h-.85C4.79,0,0,4.79,0,10.7v34.9c0,5.91,4.79,10.7,10.7,10.7h34.9c5.91,0,10.7-4.79,10.7-10.7v-.81h-28.22s-.05,0-.08,0"/>
  <path class="cls-1" d="M1.77,80.59c-.25,0-.44.08-.56.23-.12.15-.19.35-.22.61h1.39c.02-.27-.02-.48-.12-.62-.1-.14-.26-.22-.48-.22M3.16,83.33c-.15.12-.35.22-.61.3-.26.08-.53.12-.82.12-.6,0-1.04-.18-1.32-.53-.28-.35-.42-.83-.42-1.44,0-.66.16-1.15.47-1.47.31-.33.75-.49,1.32-.49.19,0,.37.03.55.07.18.05.34.13.48.25.14.12.25.27.34.46.08.19.13.43.13.72,0,.11,0,.22-.02.34-.01.12-.03.25-.06.37H.97c.02.31.1.55.24.71.15.16.38.24.71.24.2,0,.38-.03.55-.09.16-.06.28-.12.37-.19l.32.64Z"/>
  <path class="cls-1" d="M6.24,80.83c-.15-.05-.29-.08-.42-.08-.17,0-.32.05-.44.14-.12.09-.2.21-.24.35v2.41h-.97v-3.72h.75l.11.49h.03c.08-.19.2-.33.34-.43.14-.1.31-.15.51-.15.13,0,.28.03.44.08l-.13.91Z"/>
  <path class="cls-1" d="M8.53,82.93c.19,0,.34-.04.44-.13.1-.08.18-.21.23-.38v-1.68c-.15-.06-.34-.1-.57-.1-.25,0-.44.09-.58.28-.14.19-.21.48-.21.89,0,.36.06.64.18.83.12.19.29.28.51.28M10.17,83.65c0,.54-.15.94-.44,1.19-.29.26-.7.39-1.23.39-.36,0-.64-.03-.84-.07-.21-.05-.36-.1-.46-.16l.2-.77c.11.05.25.09.4.14.15.04.34.07.56.07.34,0,.57-.07.69-.22.12-.15.18-.35.18-.62v-.24h-.03c-.17.23-.48.35-.92.35-.48,0-.84-.15-1.08-.45-.24-.3-.35-.76-.35-1.4,0-.67.16-1.17.48-1.51.32-.34.78-.51,1.39-.51.32,0,.6.02.85.07.25.05.46.1.61.16v3.59Z"/>
  <path class="cls-1" d="M12.06,81.79c0,.16.02.31.05.45.03.14.07.26.14.37.06.11.14.19.23.24.1.06.21.09.35.09.25,0,.44-.09.57-.27.12-.19.19-.48.19-.87,0-.34-.06-.62-.17-.83-.11-.21-.31-.32-.58-.32-.24,0-.42.09-.56.27-.13.18-.2.47-.2.88M11.06,81.79c0-.63.15-1.12.46-1.46.31-.34.74-.51,1.3-.51.3,0,.56.05.77.14.22.1.4.23.54.4.15.17.25.38.32.62.07.24.11.51.11.8,0,.63-.15,1.12-.46,1.46-.31.34-.74.51-1.29.51-.3,0-.56-.05-.78-.14-.22-.1-.4-.23-.55-.4-.15-.17-.26-.38-.33-.62-.07-.24-.11-.51-.11-.8"/>
  <path class="cls-1" d="M17.74,83.65v-2.12c0-.3-.04-.52-.13-.65-.09-.13-.23-.2-.44-.2-.18,0-.34.05-.46.16-.13.11-.22.24-.27.4v2.41h-.97v-3.72h.77l.11.49h.03c.11-.16.26-.3.45-.41.19-.12.43-.18.73-.18.18,0,.35.03.49.07.14.05.27.13.37.25.1.12.17.27.23.47.05.2.07.44.07.73v2.32h-.97Z"/>
  <path class="cls-1" d="M20.57,81.79c0,.16.01.31.04.45.03.14.08.26.14.37.06.11.14.19.23.24.1.06.21.09.35.09.25,0,.44-.09.57-.27.12-.19.19-.48.19-.87,0-.34-.06-.62-.17-.83-.11-.21-.31-.32-.58-.32-.24,0-.42.09-.56.27-.13.18-.2.47-.2.88M19.57,81.79c0-.63.15-1.12.46-1.46.31-.34.74-.51,1.29-.51.3,0,.56.05.77.14.22.1.4.23.54.4.14.17.25.38.32.62.07.24.11.51.11.8,0,.63-.15,1.12-.46,1.46-.3.34-.74.51-1.29.51-.3,0-.56-.05-.78-.14-.22-.1-.4-.23-.55-.4-.15-.17-.26-.38-.33-.62-.07-.24-.11-.51-.11-.8"/>
  <path class="cls-1" d="M26.09,83.65v-2.02c0-.34-.03-.59-.1-.73-.06-.15-.2-.22-.4-.22-.17,0-.3.05-.41.14-.11.09-.18.21-.24.35v2.48h-.97v-3.72h.75l.11.49h.03c.11-.16.26-.3.44-.41.18-.12.4-.18.68-.18.24,0,.43.05.58.15.15.09.27.26.35.49.11-.19.26-.35.44-.46.18-.11.4-.17.65-.17.21,0,.39.03.53.07.15.05.26.13.35.26.09.12.16.28.21.49.04.2.07.46.07.78v2.23h-.97v-2.09c0-.29-.03-.51-.09-.66-.06-.14-.2-.22-.41-.22-.17,0-.31.05-.41.14-.1.1-.18.22-.23.39v2.44h-.97Z"/>
  <path class="cls-1" d="M30.28,79.92h.97v3.72h-.97v-3.72ZM30.14,78.87c0-.14.05-.27.16-.37.11-.1.25-.15.44-.15s.34.05.46.15c.12.1.18.23.18.37s-.06.27-.18.36c-.12.1-.27.15-.46.15s-.34-.05-.44-.15c-.11-.09-.16-.21-.16-.36"/>
  <path class="cls-1" d="M35.05,83.42c-.15.11-.33.19-.54.25-.21.06-.43.09-.65.09-.3,0-.55-.05-.76-.14-.21-.1-.38-.23-.5-.4-.13-.17-.22-.38-.28-.62-.06-.24-.09-.51-.09-.8,0-.63.14-1.12.42-1.46.28-.34.7-.51,1.24-.51.27,0,.49.03.66.07.17.04.32.1.45.17l-.23.79c-.11-.05-.23-.1-.34-.13-.11-.03-.24-.04-.38-.04-.27,0-.47.09-.61.26-.14.17-.21.46-.21.84,0,.16.02.31.05.44.04.13.09.25.16.35.07.1.16.18.27.24.11.06.24.08.39.08.16,0,.3-.02.42-.06.11-.04.22-.09.3-.15l.22.74Z"/>
  <path class="cls-1" d="M38.79,82.4c0,.17.02.3.07.38.04.08.11.12.22.12.06,0,.12,0,.17-.01.06-.01.13-.03.21-.07l.1.76c-.08.04-.2.08-.37.12-.16.04-.33.06-.5.06-.28,0-.5-.07-.65-.2-.15-.13-.22-.35-.22-.65v-4.47h.97v3.96Z"/>
  <path class="cls-1" d="M40.3,79.92h.97v3.72h-.97v-3.72ZM40.16,78.87c0-.14.05-.27.16-.37.11-.1.26-.15.44-.15s.34.05.46.15c.12.1.18.23.18.37s-.06.27-.18.36c-.12.1-.27.15-.46.15s-.34-.05-.44-.15c-.11-.09-.16-.21-.16-.36"/>
  <polygon class="cls-1" points="43.72 81.88 43.85 82.45 43.89 82.45 43.99 81.86 44.62 79.92 45.67 79.92 44.11 83.69 43.52 83.69 41.91 79.92 43.03 79.92 43.72 81.88"/>
  <path class="cls-1" d="M46.3,79.92h.97v3.72h-.97v-3.72ZM46.16,78.87c0-.14.05-.27.16-.37.11-.1.26-.15.44-.15s.34.05.46.15c.12.1.17.23.17.37s-.06.27-.17.36c-.12.1-.27.15-.46.15s-.34-.05-.44-.15c-.11-.09-.16-.21-.16-.36"/>
  <path class="cls-1" d="M50.72,83.65v-2.12c0-.3-.04-.52-.13-.65-.09-.13-.24-.2-.44-.2-.18,0-.34.05-.47.16-.12.11-.22.24-.27.4v2.41h-.97v-3.72h.77l.11.49h.03c.11-.16.26-.3.45-.41.19-.12.43-.18.73-.18.18,0,.35.03.49.07.14.05.26.13.36.25.1.12.17.27.22.47.05.2.07.44.07.73v2.32h-.97Z"/>
  <path class="cls-1" d="M54.23,82.93c.19,0,.34-.04.44-.13.1-.08.18-.21.23-.38v-1.68c-.15-.06-.34-.1-.57-.1-.25,0-.44.09-.58.28-.14.19-.21.48-.21.89,0,.36.06.64.18.83.12.19.29.28.51.28M55.87,83.65c0,.54-.15.94-.44,1.19-.29.26-.7.39-1.23.39-.36,0-.64-.03-.85-.07-.2-.05-.36-.1-.47-.16l.2-.77c.12.05.25.09.4.14.15.04.34.07.56.07.34,0,.57-.07.69-.22.12-.15.18-.35.18-.62v-.24h-.03c-.17.23-.48.35-.92.35-.48,0-.84-.15-1.08-.45-.24-.3-.35-.76-.35-1.4,0-.67.16-1.17.48-1.51.32-.34.78-.51,1.39-.51.32,0,.6.02.85.07.25.05.46.1.62.16v3.59Z"/>
</svg>